<?xml version="1.0" standalone="no"?>
<!DOCTYPE svg PUBLIC "-//W3C//DTD SVG 20010904//EN"
 "http://www.w3.org/TR/2001/REC-SVG-20010904/DTD/svg10.dtd">
<svg version="1.0" xmlns="http://www.w3.org/2000/svg"
 width="300.000000pt" height="300.000000pt" viewBox="0 0 300.000000 300.000000"
 preserveAspectRatio="xMidYMid meet">
<metadata>
Created by potrace 1.11, written by Peter Selinger 2001-2013
</metadata>
<g transform="translate(0.000000,300.000000) scale(0.100000,-0.100000)"
fill="#000000" stroke="none">
<path d="M690 2750 c-20 -20 -20 -31 -20 -862 0 -464 4 -848 8 -855 15 -23 59
-29 202 -27 80 1 154 2 165 3 48 3 49 5 51 646 1 330 3 628 3 663 l1 64 303
-4 c302 -3 302 -3 358 -29 139 -65 214 -207 184 -350 -22 -107 -85 -188 -183
-236 -54 -27 -65 -28 -240 -33 -193 -5 -201 -7 -202 -55 0 -25 567 -1156 588
-1172 11 -10 70 -13 212 -13 178 0 198 2 213 18 10 10 17 29 17 42 0 12 -36
88 -79 169 -43 80 -95 175 -114 211 -19 36 -85 158 -146 270 -94 172 -109 206
-97 215 9 5 52 30 97 55 86 47 207 155 251 225 48 77 55 90 76 147 30 81 34
101 37 213 4 127 -12 203 -69 319 -91 188 -259 322 -466 375 -69 17 -119 19
-602 20 -517 1 -528 1 -548 -19z"/>
<path d="M800 735 c-57 -18 -124 -75 -152 -128 -11 -23 -23 -69 -26 -103 -11
-139 94 -258 238 -271 152 -14 273 94 277 248 5 180 -166 309 -337 254z"/>
</g>
</svg>
